<?xml version="1.0" encoding="iso-8859-1"?>
<!-- Generator: Adobe Illustrator 19.0.0, SVG Export Plug-In . SVG Version: 6.00 Build 0)  -->
<svg version="1.1" id="Capa_1" xmlns="http://www.w3.org/2000/svg" xmlns:xlink="http://www.w3.org/1999/xlink" x="0px" y="0px"
	 viewBox="0 0 511.999 511.999" style="enable-background:new 0 0 511.999 511.999;" xml:space="preserve">
<path style="fill:#0964AF;" d="M504.183,212.556c-6.765-39.016-123.357-51.2-260.447-27.206
	C121.142,206.852,0.452,256.788,7.812,299.486c10.296,59.439,263.906,52.141,432.871-24.511
	C483.045,254.389,507.535,231.977,504.183,212.556z"/>
<path style="fill:#004F9C;" d="M33.341,299.486c-3.539-20.532,24.046-44.436,70.974-65.954
	c88.079-38.636,197.212-58.459,283.583-60.336C220.45,169.345-2.08,242.099,7.812,299.486
	c4.669,26.951,61.734,41.101,141.748,39.361C83.159,337.317,37.497,323.473,33.341,299.486z"/>
<path d="M153.502,229.662h-20.27c-0.953,0-1.77,0.68-1.943,1.617l-9.219,50.039c-0.099,0.536,0.313,1.03,0.858,1.03h12.153
	c0.546,0,1.01-0.4,1.091-0.94l6.798-45.319c0.064-0.429,0.683-0.427,0.745,0.001l6.611,45.166c0.092,0.627,0.629,1.092,1.263,1.092
	h11.864c0.569,0,0.998-0.516,0.896-1.075l-9.221-50.256C154.986,230.232,154.301,229.662,153.502,229.662z"/>
<path d="M187.058,282.348c0.578,0,1.047-0.466,1.052-1.044l0.331-44.979c0.002-0.317,0.462-0.358,0.52-0.045l8.206,44.451
	c0.173,0.938,0.991,1.618,1.944,1.618h10.544c0.639,0,1.186-0.456,1.302-1.084l8.362-45.245c0.052-0.282,0.468-0.246,0.47,0.042
	l0.328,44.571c0.007,0.95,0.779,1.716,1.729,1.716h9.604c0.995,0,1.796-0.819,1.774-1.814l-1.112-49.745
	c-0.014-0.627-0.526-1.127-1.153-1.127h-18.868c-0.777,0-1.44,0.564-1.563,1.332l-5.885,36.652c-0.094,0.584-0.934,0.584-1.028,0
	l-5.866-36.537c-0.134-0.834-0.853-1.447-1.698-1.447h-18.357c-0.86,0-1.563,0.688-1.582,1.548l-1.079,49.753
	c-0.016,0.76,0.595,1.385,1.356,1.385h10.669V282.348z"/>
<path d="M258.67,264.971h-11.511c-0.608,0-1.101,0.493-1.101,1.101v2.923c0,11.644,9.075,15.147,18.843,15.147
	c9.368,0,17.098-3.2,18.337-11.922c0.586-4.504,0.141-7.437-0.096-8.534c-2.164-10.93-21.816-14.217-23.308-20.305
	c-0.227-1.052-0.172-2.159-0.051-2.73c0.384-1.684,1.512-3.524,4.758-3.524c3.023,0,4.798,1.901,4.798,4.737v1.875
	c0,0.74,0.6,1.341,1.341,1.341h10.129c0.802,0,1.453-0.65,1.453-1.452v-2.203c0-11.36-10.116-13.14-17.457-13.14
	c-9.221,0-16.754,3.064-18.145,11.593c-0.364,2.321-0.45,4.388,0.131,7.022c2.245,10.652,20.689,13.746,23.358,20.477
	c0.47,1.274,0.339,2.902,0.096,3.873c-0.4,1.749-1.567,3.504-5.051,3.504c-3.256,0-5.223-1.886-5.223-4.727v-3.754
	C259.971,265.553,259.388,264.971,258.67,264.971z"/>
<path d="M308.977,231.495c0-1.012-0.821-1.833-1.833-1.833h-9.39c-1.117,0-2.023,0.906-2.023,2.023v35.749
	c-0.015,0.971,0.056,2.953,0.116,3.479c0.91,9.843,8.62,13.034,18.261,13.034c9.651,0,17.357-3.19,18.287-13.034
	c0.081-0.526,0.162-2.508,0.106-3.479v-35.968c0-0.996-0.808-1.804-1.804-1.804h-9.827c-0.892,0-1.615,0.723-1.615,1.615v37.365
	c0.025,0.672,0,1.446-0.116,2.002c-0.278,1.304-1.375,3.823-5.03,3.823c-3.615,0-4.747-2.518-5-3.823
	c-0.131-0.556-0.156-1.33-0.131-2.002L308.977,231.495L308.977,231.495z"/>
<path d="M378.247,270.097L366.97,231.32c-0.286-0.982-1.186-1.658-2.209-1.658h-15.964c-0.968,0-1.753,0.785-1.753,1.753v48.733
	c0,0.911,0.738,1.649,1.649,1.649h9.518c0.931,0,1.681-0.763,1.665-1.694l-0.668-39.05c-0.008-0.489,0.683-0.598,0.825-0.129
	l12.037,39.728c0.206,0.68,0.833,1.146,1.544,1.146h15.784c0.922,0,1.67-0.748,1.67-1.67V231c0-0.738-0.598-1.336-1.337-1.336
	h-9.818c-0.986,0-1.78,0.808-1.764,1.793l0.639,38.56C378.795,270.338,378.337,270.407,378.247,270.097z"/>
<path d="M144.053,339.001c0.102,4.077,3.438,7.313,7.494,7.313c0.063,0,0.127-0.001,0.19-0.002
	c161.155-4.013,370.973-70.494,359.836-135.021c-6.683-38.548-85.749-44.805-124.863-45.605c-4.134-0.078-7.568,3.204-7.652,7.345
	c-0.084,4.142,3.204,7.567,7.345,7.652c77.509,1.584,107.909,18.858,110.39,33.164c2.444,14.165-17.935,33.477-54.735,52.086
	v-11.949c0-0.67-0.543-1.213-1.213-1.213h-16.179c-0.636,0-1.152,0.516-1.152,1.152v5.037c0,0.826,0.67,1.496,1.496,1.496h2.87
	c0.552,0,0.999,0.447,0.999,0.999v6.63c0.149,4.012-2.175,5.84-5.495,5.84c-3.415,0-5.485-1.763-5.485-5.84v-24.081
	c0-0.859,0.061-1.784,0.242-2.482c0.258-1.284,1.391-3.822,5.213-3.822c4.009,0,5.005,2.665,5.228,3.822
	c0.207,0.993,0.172,2.575,0.172,3.594c0,0.746,0.605,1.351,1.351,1.351h10.149c0.934,0,1.691-0.757,1.691-1.691v-0.038
	c0.36-11.649-6.589-16.487-18.484-16.487c-11.646,0-18.65,4.706-18.65,16.487c0,25.005-0.068,22.933,0.202,25.634
	c0.405,4.515,2.458,7.653,5.477,9.717c-74.932,29.989-176.556,49.171-259.122,51.229
	C147.223,331.419,143.949,334.86,144.053,339.001z"/>
<path d="M116.266,346.132c0.097,0.003,0.193,0.005,0.29,0.005c4.01,0,7.335-3.173,7.489-7.215c0.157-4.139-3.071-7.622-7.21-7.779
	c-58.661-2.229-98.556-15.151-101.632-32.915c-2.56-14.851,20.524-35.671,60.604-54.984c0.013,1.112,0.134,2.262,0.401,3.552
	c2.265,10.764,20.896,13.893,23.606,20.699c0.505,1.274,0.344,2.892,0.096,3.888c-0.43,1.78-1.613,3.559-5.116,3.559
	c-3.266,0-5.233-1.911-5.233-4.788l-0.016-4.02c-0.002-0.581-0.474-1.051-1.055-1.051H76.897c-0.78,0-1.413,0.633-1.413,1.413v2.616
	c0,11.775,9.196,15.319,19.04,15.319c9.475,0,17.255-3.241,18.519-12.058c0.632-4.54,0.157-7.513-0.066-8.625
	c-2.199-11.067-22.084-14.333-23.576-20.507c-0.243-1.057-0.187-2.179-0.051-2.76c0.369-1.683,1.496-3.554,4.788-3.554
	c3.079,0,4.884,1.921,4.884,4.793v2.104c0,0.636,0.516,1.152,1.152,1.152h10.267c0.911,0,1.65-0.739,1.65-1.65v-2.061
	c0-5.802-2.642-9.131-6.212-11.005c67.707-26.341,161.651-45.98,245.963-49.224c4.139-0.16,7.365-3.644,7.206-7.783
	s-3.664-7.359-7.783-7.206C189.847,172.258-10.416,237.911,0.422,300.782C6.634,336.646,75.668,344.589,116.266,346.132z"/>
<g>
</g>
<g>
</g>
<g>
</g>
<g>
</g>
<g>
</g>
<g>
</g>
<g>
</g>
<g>
</g>
<g>
</g>
<g>
</g>
<g>
</g>
<g>
</g>
<g>
</g>
<g>
</g>
<g>
</g>
</svg>
